<?xml version="1.0" encoding="utf-8"?>
<!-- Generator: Adobe Illustrator 22.1.0, SVG Export Plug-In . SVG Version: 6.00 Build 0)  -->
<svg version="1.1" id="Layer_1" xmlns="http://www.w3.org/2000/svg" xmlns:xlink="http://www.w3.org/1999/xlink" x="0px" y="0px"
	 viewBox="0 0 1836 656" style="enable-background:new 0 0 1836 656;" xml:space="preserve">
<style type="text/css">
	.st0{fill:#FFFFFF;}
	.st1{fill:#68AFEA;}
	.st2{fill:#0A598E;}
	.st3{fill:#86BDEA;}
	.st4{fill:#3BA1F4;}
	.st5{fill:#0675E1;}
</style>
<path class="st0" d="M226.8,213.9c10.1-9.7,23.1-14.9,37.1-14.9c14.1,0,27.4,5.2,37.2,14.9c10.2,10,15.4,22.2,15.4,36.5
	c0,13.3-5.3,26.1-15.3,35.6c-10.2,9.8-23.1,14.9-37.4,14.9c-14,0-27.3-5.3-37.1-14.9c-10.1-9.8-15.4-22.5-15.4-36.5
	C211.4,236.2,217,223.4,226.8,213.9z M237.3,276.5c6.9,7.1,16.6,11,26.5,11c10.2,0,19.5-3.8,26.7-11c7.1-7.1,11-16.4,11-26.5
	c0-10.1-3.9-19.2-11.1-26.5c-7.1-7.2-16.4-11.1-26.5-11.1c-10,0-19.3,4-26.5,11.1c-7.1,6.9-11,16.4-11,26.5
	C226.4,260,230.3,269.4,237.3,276.5z"/>
<path class="st0" d="M325.7,234h13.1v3.6c4.9-3.5,10.2-5,16.7-5c18.6,0,31.9,13.7,31.9,33.9c0,20.2-13.3,33.9-31.9,33.9
	c-6.5,0-11.8-1.4-16.7-4.9v36.3h-13.1V234z M338.8,284.8c4.2,3,8.4,4.5,13.4,4.5c13.1,0,21.3-8.5,21.3-22.8
	c0-14.3-8.2-22.6-21.3-22.6c-5,0-9.2,1.4-13.4,4.5V284.8z"/>
<path class="st0" d="M429.5,300.5c-20.8,0-33.7-14.1-33.7-35c0-19.3,12.8-32.7,31.9-32.7c18.5,0,30.6,12.8,30.6,34.2v1.9h-48.7
	c0.7,12.4,8.5,19.6,20.8,19.6c8.2,0,17.2-3,26.8-9.2v13C448.4,297.8,439.3,300.5,429.5,300.5z M444,259.6
	c-0.9-9.5-7.5-15.7-16.4-15.7c-10,0-16.2,5.5-18,15.7H444z"/>
<path class="st0" d="M471.3,234h13v7.9c6.3-6.1,12.5-8.9,20-8.9c14.1,0,22.8,8.7,22.8,22.9v43.1h-13v-39.8
	c0-10.5-4.3-15.4-13.7-15.4c-6.8,0-11.4,2.5-16.2,8.4v46.9h-13V234z"/>
<path class="st0" d="M669.2,293.3c-12.7,5.5-24.2,8.4-35,8.4c-11.7,0-22.2-2.9-31-8.7c-14.7-9.5-23.2-25.1-23.2-42.7
	c0-13.3,5.6-26.2,15.4-35.6c10.5-10.1,23.5-14.9,39.5-14.9c11,0,21.9,2.6,33.5,7.9v15.3c-12-6.5-22.8-10-33.6-10
	c-23.5,0-39.8,16.6-39.8,37.6c0,21.1,16.3,37.5,39.1,37.5c6.8,0,13.4-1.4,20.6-4.5v-19h-18.5v-13.1h33V293.3z"/>
<path class="st0" d="M713.7,233.4c9.2,0,17.7,3.6,24.2,10c6.6,6.6,10.2,14.9,10.2,23.9c0,8.9-3.7,17.7-10.2,24.1
	c-6.6,6.5-15,9.8-24.2,9.8c-19.3,0-34.6-15-34.6-33.9C679.1,248.6,694.2,233.4,713.7,233.4z M713.5,289c11.5,0,20.9-9.7,20.9-21.6
	c0-12-9.4-21.5-20.9-21.5c-11.5,0-20.9,9.5-20.9,21.5C692.6,279.4,702,289,713.5,289z"/>
<path class="st0" d="M746.5,234.9H761l20,43.1l18.7-43.1h14.1l-30,66.3h-6.1L746.5,234.9z"/>
<path class="st0" d="M852.2,301.4c-20.8,0-33.7-14.1-33.7-35c0-19.3,12.8-32.7,31.9-32.7c18.5,0,30.6,12.8,30.6,34.2v1.9h-48.7
	c0.7,12.4,8.5,19.6,20.8,19.6c8.2,0,17.2-3,26.8-9.2v13C871.1,298.6,862,301.4,852.2,301.4z M866.6,260.4
	c-0.9-9.5-7.5-15.7-16.4-15.7c-10,0-16.2,5.5-18,15.7H866.6z"/>
<path class="st0" d="M893.1,234.9h13V249c6.5-10.2,11.7-15.3,19.2-15.3c4.8,0,9.5,2.2,14.9,6.3l-7.1,11.5c-4-3.5-7.6-5.2-12.1-5.2
	c-6.8,0-12.5,5.9-14.9,16.7v36.8h-13V234.9z"/>
<path class="st0" d="M950.7,234.9h13v7.9c6.3-6.1,12.5-8.9,20-8.9c14.1,0,22.8,8.7,22.8,22.9v43.1h-13v-39.8
	c0-10.5-4.3-15.4-13.7-15.4c-6.8,0-11.4,2.5-16.2,8.4v46.9h-13V234.9z"/>
<path class="st0" d="M1021.8,234.9h13v7.9c6.3-6.1,12.5-8.9,20-8.9c9.5,0,15.7,3.3,20.2,11c7.5-7.4,14-11,22.4-11
	c14.1,0,22.9,8.7,22.9,22.9v43.1h-13.1v-39.8c0-10.5-4.2-15.4-13.6-15.4c-6.8,0-11.5,2.5-16.3,8.4v46.9h-12.7v-39.8
	c0-10.5-4.3-15.4-13.7-15.4c-6.8,0-11.4,2.5-16.2,8.4v46.9h-13V234.9z"/>
<path class="st0" d="M1164.9,301.4c-20.8,0-33.7-14.1-33.7-35c0-19.3,12.8-32.7,31.9-32.7c18.5,0,30.6,12.8,30.6,34.2v1.9h-48.7
	c0.7,12.4,8.5,19.6,20.8,19.6c8.2,0,17.2-3,26.8-9.2v13C1183.8,298.6,1174.7,301.4,1164.9,301.4z M1179.4,260.4
	c-0.9-9.5-7.5-15.7-16.4-15.7c-10,0-16.2,5.5-18,15.7H1179.4z"/>
<path class="st0" d="M1207.6,234.9h13v7.9c6.3-6.1,12.5-8.9,20-8.9c14.1,0,22.8,8.7,22.8,22.9v43.1h-13v-39.8
	c0-10.5-4.3-15.4-13.7-15.4c-6.8,0-11.4,2.5-16.2,8.4v46.9h-13V234.9z"/>
<path class="st0" d="M1301.4,301.2c-15.9,0-19.9-7.4-19.9-24.2v-30.9h-11.1v-1.3l22.8-25.1h1.4v15.1h20.3v11.2h-20.3V276
	c0,9.2,1,12.8,9.5,12.8c3.9,0,7.6-1,11.2-3.2v12.3C1311.2,300.2,1306.6,301.2,1301.4,301.2z"/>
<path class="st0" d="M924.9,364.7c13.3,8.9,20.9,23.7,20.9,40.7c0,17-7.6,31.9-20.9,40.8c-9.2,6.3-19.9,8.5-33.2,8.5h-36.2v-98.5
	h36.2C904.9,356.1,915.4,358.2,924.9,364.7z M869.6,369.6v71.7h22.2c25.1,0,39.1-14.3,39.1-35.8c0-21.5-14-35.9-39.1-35.9H869.6z"/>
<path class="st0" d="M989.7,456.1c-20.8,0-33.7-14.1-33.7-35c0-19.3,12.8-32.7,31.9-32.7c18.5,0,30.6,12.8,30.6,34.2v1.9h-48.7
	c0.7,12.4,8.5,19.6,20.8,19.6c8.2,0,17.2-3,26.8-9.2v13C1008.6,453.4,999.5,456.1,989.7,456.1z M1004.1,415.1
	c-0.9-9.5-7.5-15.7-16.4-15.7c-10,0-16.2,5.5-18,15.7H1004.1z"/>
<path class="st0" d="M1053,455.7c-14.1,0-22.9-8.7-22.9-22.9v-43.1h13.1v39.8c0,10.5,4.3,15.4,13.7,15.4c6.8,0,11.4-2.5,16.2-8.4
	v-46.9h13v65h-13v-7.9C1066.7,452.8,1060.5,455.7,1053,455.7z"/>
<path class="st0" d="M1124.4,456c-15.9,0-19.9-7.4-19.9-24.2v-30.9h-11.1v-1.3l22.8-25.1h1.4v15.1h20.3v11.2h-20.3v29.9
	c0,9.2,1,12.8,9.5,12.8c3.9,0,7.6-1,11.2-3.2v12.3C1134.2,454.9,1129.6,456,1124.4,456z"/>
<path class="st0" d="M1144.7,436.3c8.2,5.5,15.6,7.9,21.2,7.9c6.8,0,10.7-2.7,10.7-6.9c0-5-6.1-6.9-15.4-11.8
	c-10.4-5.3-15.9-10.1-15.9-19.6c0-10.7,8.1-17.7,21.9-17.7c7.4,0,14,1.7,20.5,5.3v12.7c-7.5-4.2-14.1-6.5-20.3-6.5
	c-5.5,0-8.5,2-8.5,5.5c0,5.2,5.2,7.5,14.9,12.3c11,5.5,17,9.4,17,19.6c0,11.2-9.1,18.9-23.5,18.9c-8.2,0-15.4-1.9-22.5-5.8V436.3z"
	/>
<path class="st0" d="M1254.1,452.5c-6.5,2.3-12.7,3.5-18.8,3.5c-21.5,0-36.3-14.4-36.3-33.9c0-18.9,14.9-33.9,35.8-33.9
	c6.2,0,12.3,1.3,18.3,4v13.8c-6.1-3.6-11.8-5.3-17.9-5.3c-13.7,0-22.6,9.1-22.6,21.3c0,12.4,8.9,21.6,23.2,21.6
	c6.3,0,12.4-1.4,18.3-4.5V452.5z"/>
<path class="st0" d="M1266.9,356.1h13v41.4c6.3-6.1,12.5-8.9,20-8.9c14.1,0,22.9,8.7,22.9,22.9v43.1h-13.1v-39.8
	c0-10.5-4.2-15.4-13.6-15.4c-6.8,0-11.7,2.5-16.3,8.4v46.9h-13V356.1z"/>
<path class="st0" d="M1339.3,356.1h13v98.5h-13V356.1z"/>
<path class="st0" d="M1383,455.8c-12,0-18.6-6.2-18.6-15.7c0-9.2,7.2-16.2,21.5-20.9l15.4-5.2c0.1-1,0.1-1.9,0.1-2.7
	c0-7.8-3.6-11-12.3-11c-7.2,0-15,3-22.8,9.1v-12.8c6.8-5.5,15.3-8.2,24.4-8.2c17.2,0,23.9,7.4,23.9,23.4v27.5c0,4.2,0.6,6.3,2.6,6.3
	c2.2,0,4-1.4,6.8-3.6v7.9c-4.8,4-9.5,5.9-14.6,5.9c-4.9,0-7.4-1.9-7.8-6.5C1395.4,453.8,1389.9,455.8,1383,455.8z M1401.3,422.3
	c-15.4,4.8-23.1,8.7-23.1,15.6c0,5.3,3.6,8.4,9.8,8.4c4.5,0,8.9-1.6,13.3-4.9V422.3z"/>
<path class="st0" d="M1431.7,389.6h13v7.9c6.3-6.1,12.5-8.9,20-8.9c14.1,0,22.8,8.7,22.8,22.9v43.1h-13v-39.8
	c0-10.5-4.3-15.4-13.7-15.4c-6.8,0-11.4,2.5-16.2,8.4v46.9h-13V389.6z"/>
<path class="st0" d="M1531.7,456c-18.6,0-31.9-13.7-31.9-33.9s13.3-33.9,31.9-33.9c6.5,0,12,1.6,16.9,5v-37.1h13v98.5h-13v-3.6
	C1543.6,454.5,1538.2,456,1531.7,456z M1548.6,403.6c-4.2-3-8.5-4.5-13.6-4.5c-13.1,0-21.3,8.5-21.3,22.8c0,14.3,8.2,22.8,21.3,22.8
	c5,0,9.4-1.4,13.6-4.5V403.6z"/>
<path class="st0" d="M221.8,356.6H234l64.5,76v-76h13.9v97.9h-12.5l-64.2-76.1v76.1h-13.9V356.6z"/>
<path class="st0" d="M357.4,456c-20.6,0-33.5-14-33.5-34.8c0-19.2,12.8-32.5,31.7-32.5c18.3,0,30.4,12.8,30.4,34v1.9h-48.4
	c0.7,12.3,8.5,19.5,20.6,19.5c8.2,0,17.1-3,26.7-9.2v12.9C376.2,453.2,367.2,456,357.4,456z M371.7,415.3
	c-0.9-9.5-7.5-15.6-16.3-15.6c-9.9,0-16.1,5.4-17.9,15.6H371.7z"/>
<path class="st0" d="M419.8,455.8c-15.8,0-19.8-7.3-19.8-24.1v-30.7h-11v-1.3l22.6-24.9h1.4v15h20.2v11.2H413v29.7
	c0,9.2,1,12.8,9.5,12.8c3.9,0,7.6-1,11.2-3.2v12.2C429.5,454.8,424.9,455.8,419.8,455.8z"/>
<path class="st0" d="M440.2,452.8l36.1-51h-34.7v-11.9h57.2v1.4l-35.4,51h36v12.2h-59.2V452.8z"/>
<path class="st0" d="M501.3,389.9h13.6l18.5,42.9l17.8-42.9h8.5l18.1,42.7l18.5-42.7h13.6L581,455.8h-6.3L555.5,409l-19.2,46.9H530
	L501.3,389.9z"/>
<path class="st0" d="M646.9,456c-20.6,0-33.5-14-33.5-34.8c0-19.2,12.8-32.5,31.7-32.5c18.3,0,30.4,12.8,30.4,34v1.9H627
	c0.7,12.3,8.5,19.5,20.6,19.5c8.2,0,17.1-3,26.7-9.2v12.9C665.7,453.2,656.7,456,646.9,456z M661.2,415.3
	c-0.9-9.5-7.5-15.6-16.3-15.6c-9.9,0-16.1,5.4-17.9,15.6H661.2z"/>
<path class="st0" d="M687.6,389.9h12.9v14c6.4-10.2,11.6-15.2,19.1-15.2c4.7,0,9.5,2.1,14.8,6.3l-7,11.5c-4-3.4-7.6-5.2-12-5.2
	c-6.7,0-12.5,5.9-14.8,16.6v36.5h-12.9V389.9z"/>
<path class="st0" d="M741.6,356.6h12.9v97.9h-12.9V356.6z M771.6,419.4l32.5,35.1h-17.6L755,420.1l27.8-30.2h15.9L771.6,419.4z"/>
<rect x="1359.1" y="272.6" transform="matrix(3.751809e-06 -1 1 3.751809e-06 1069.6781 1658.5939)" class="st0" width="10" height="43.8"/>
<rect x="1402.9" y="272.6" transform="matrix(3.751809e-06 -1 1 3.751809e-06 1113.4579 1702.376)" class="st1" width="10" height="43.8"/>
<rect x="1446.7" y="272.6" transform="matrix(3.751810e-06 -1 1 3.751810e-06 1157.2386 1746.1569)" class="st2" width="10" height="43.8"/>
<rect x="1490.5" y="272.6" transform="matrix(3.751809e-06 -1 1 3.751809e-06 1201.0205 1789.9368)" class="st3" width="10" height="43.8"/>
<rect x="1534.3" y="272.6" transform="matrix(3.751810e-06 -1 1 3.751810e-06 1244.8008 1833.7183)" class="st4" width="10" height="43.8"/>
<path class="st0" d="M1754,601H47.9V55H1754V601z M57.9,591H1744V65H57.9V591z"/>
</svg>
